<?xml version="1.0" encoding="utf-8"?>
<!-- Generator: Adobe Illustrator 21.0.2, SVG Export Plug-In . SVG Version: 6.00 Build 0)  -->
<svg version="1.1" id="Слой_1" xmlns="http://www.w3.org/2000/svg" xmlns:xlink="http://www.w3.org/1999/xlink" x="0px" y="0px"
	 viewBox="0 0 873.5 900" style="enable-background:new 0 0 873.5 900;" xml:space="preserve">
<style type="text/css">
	.st0{fill:#FF4D4D;}
</style>
<g>
	<g>
		<path class="st0" d="M32.9,900h807.7c18.5,0,32.9-14.5,32.9-32.9V32.9c0-18.5-14.5-32.9-32.9-32.9H216.8c-2.4,0-5.6,0-8,0.8
			c-0.8,0-1.6,0.8-1.6,0.8c-2.4,0.8-4,1.6-6.4,2.4c-0.8,0.8-1.6,0.8-2.4,1.6c-2.4,1.6-4.8,3.2-6.4,5.6L8,228c-2.4,2.4-4,5.6-5.6,8.8
			c-0.8,0.8-0.8,2.4-0.8,3.2c-0.8,2.4-0.8,4.8-1.6,7.2c0,0.8,0,0.8,0,1.6v617.4C0,885.5,15.3,900,32.9,900z M183.9,122.8v94.7h-80.3
			L183.9,122.8z M65.8,282.6h150.9c18.5,0,32.9-14.5,32.9-32.9V65.8h558v768.3H65.8L65.8,282.6z"/>
		<path class="st0" d="M709.7,485.6H163.8c-18.5,0-32.9,14.5-32.9,32.9c0,18.5,14.5,32.9,32.9,32.9h545.9
			c18.5,0,32.9-14.5,32.9-32.9C742.6,500,728.2,485.6,709.7,485.6z"/>
		<path class="st0" d="M709.7,644.6H163.8c-18.5,0-32.9,14.5-32.9,32.9c0,18.5,14.5,32.9,32.9,32.9h545.9
			c18.5,0,32.9-14.5,32.9-32.9C742.6,659.8,728.2,644.6,709.7,644.6z"/>
	</g>
</g>
</svg>
