<?xml version="1.0" encoding="utf-8"?>
<!-- Generator: Adobe Illustrator 21.0.2, SVG Export Plug-In . SVG Version: 6.00 Build 0)  -->
<svg version="1.1" id="Слой_1" xmlns="http://www.w3.org/2000/svg" xmlns:xlink="http://www.w3.org/1999/xlink" x="0px" y="0px"
	 viewBox="0 0 901.5 900.8" style="enable-background:new 0 0 901.5 900.8;" xml:space="preserve">
<style type="text/css">
	.st0{fill:#FF4D4D;}
</style>
<g>
	<g>
		<path class="st0" d="M264.8,423.9c-12.4-12.4-32.6-12.4-45,0c-12.4,12.4-12.4,32.6,0,45l146.5,146.5c6.2,6.2,14,9.3,22.5,9.3
			c0.8,0,0.8,0,1.6,0c8.5-0.8,17.1-4.7,23.3-11.6l366.7-439.6c10.9-13.2,9.3-33.3-3.9-45c-13.2-10.9-33.3-9.3-45,3.9l-345,413.3
			L264.8,423.9z"/>
		<path class="st0" d="M688.2,68.8C509.9-42.8,281.1-16.5,132.3,132.4C-43,307.6-43,593.7,132.3,768.9
			c87.6,87.6,203.1,131.8,317.9,131.8S680.4,856.6,768,768.9c149.6-149.6,175.2-379.1,62.8-557.5c-9.3-14.7-28.7-19.4-43.4-10.1
			s-19.4,28.7-10.1,43.4c96.9,153.5,74.4,350.5-54.3,479.2c-150.4,150.4-396.2,150.4-546.6,0s-150.4-396.2,0-546.6
			c128.7-127.9,324.9-150.4,478.4-55c14.7,9.3,34.1,4.7,43.4-10.1C707.6,97.5,702.9,78.1,688.2,68.8z"/>
	</g>
</g>
</svg>
