<?xml version="1.0" encoding="utf-8"?>
<!-- Generator: Adobe Illustrator 21.0.2, SVG Export Plug-In . SVG Version: 6.00 Build 0)  -->
<svg version="1.1" id="Слой_1" xmlns="http://www.w3.org/2000/svg" xmlns:xlink="http://www.w3.org/1999/xlink" x="0px" y="0px"
	 viewBox="0 0 901.5 884.7" style="enable-background:new 0 0 901.5 884.7;" xml:space="preserve">
<style type="text/css">
	.st0{fill:#FFFFFF;}
</style>
<g>
	<g>
		<path class="st0" d="M869.4,821.9H32.1c-17.6,0-31.4,14.5-31.4,31.4c0,16.8,14.5,31.4,31.4,31.4h838c17.6,0,31.4-14.5,31.4-31.4
			C901.5,836.5,887,821.9,869.4,821.9z"/>
		<path class="st0" d="M0.8,544.1L0,693.3c0,8.4,3.1,16.8,9.2,23c6.1,6.1,13.8,9.2,22.2,9.2l148.5-0.8c8.4,0,16.1-3.1,22.2-9.2
			l512.7-512.7c12.2-12.2,12.2-32.1,0-45.2L567.8,9.2C555.6-3,535.7-3,522.6,9.2L420.1,112.5L9.9,521.9C4.6,528,0.8,535.7,0.8,544.1
			z M545.6,76.5L649,179.8L590.8,238L487.5,134.7L545.6,76.5z M64.3,557.9l378-378l103.3,103.3l-378,377.3l-104.1,0.8L64.3,557.9z"
			/>
	</g>
</g>
</svg>
