<?xml version="1.0" encoding="utf-8"?>
<!-- Generator: Adobe Illustrator 21.0.2, SVG Export Plug-In . SVG Version: 6.00 Build 0)  -->
<svg version="1.1" id="Слой_1" xmlns="http://www.w3.org/2000/svg" xmlns:xlink="http://www.w3.org/1999/xlink" x="0px" y="0px"
	 viewBox="0 0 5683 889.2" style="enable-background:new 0 0 5683 889.2;" xml:space="preserve">
<style type="text/css">
	.st0{fill:#FF4D4D;}
</style>
<path class="st0" d="M607.7,625c10.1,0,17.5,3.5,22.2,10.5l87.1,132.2c1.9,3.1,2.9,6.6,2.9,10.5c0,5.1-1.5,10-4.4,14.9
	c-2.9,4.9-7.1,9.3-12.6,13.2c-31.6,23.8-71.4,43.6-119.6,59.4c-48.2,15.8-92.7,23.7-133.6,23.7c-82.7,0-158.3-19.7-226.9-59.1
	C154.2,791,99.9,737.3,59.9,669.2C20,601.2,0,526.4,0,444.9C0,363,20,288.1,59.9,220c40-68,94.3-121.7,162.9-161.1
	C291.5,19.5,367.1-0.2,449.8-0.2c39.8,0,84,8.1,132.8,24.3c48.7,16.2,90.3,36.7,124.6,61.7c9.4,7,14,15.4,14,25.2
	c0,5.1-1.4,9.6-4.1,13.5l-88.9,130.4c-4.7,6.6-11.7,9.9-21.1,9.9c-7.8,0-15.4-2.5-22.8-7.6c-19.1-14.4-41.1-26.1-66.1-35.1
	c-25-9-47.8-13.5-68.4-13.5c-43.7,0-83.6,10.5-119.9,31.6c-36.3,21.1-65,49.6-86.3,85.7c-21.3,36.1-31.9,75.7-31.9,119
	c0,42.9,10.6,82.3,31.9,118.1c21.2,35.9,50,64.3,86.3,85.1c36.3,20.9,76.2,31.3,119.9,31.3c20.3,0,42.7-4.3,67.3-12.9
	c24.6-8.6,46-19.5,64.3-32.7C590.3,628,599.1,625,607.7,625z"/>
<path class="st0" d="M1559.9,22c3.9,3.9,5.8,9.6,5.8,17v809.5c0,7.4-1.9,13.1-5.8,17c-3.9,3.9-9.4,5.8-16.4,5.8H1378
	c-7,0-12.5-1.9-16.4-5.8c-3.9-3.9-5.9-9.6-5.9-17V526.8h-319.9v321.7c0,7.4-2,13.1-5.8,17c-3.9,3.9-9.4,5.8-16.4,5.8H848.7
	c-7,0-12.6-1.9-16.7-5.8c-4.1-3.9-6.1-9.6-6.1-17V39c0-7.4,2.1-13.1,6.1-17c4.1-3.9,9.6-5.9,16.7-5.9h164.9c7,0,12.5,2,16.4,5.9
	c3.9,3.9,5.8,9.6,5.8,17v295.4h319.9V39c0-7.4,1.9-13.1,5.9-17c3.9-3.9,9.4-5.9,16.4-5.9h165.5C1550.5,16.2,1556,18.1,1559.9,22z"/>
<path class="st0" d="M1709,47.2c0-9.7,2.7-17.3,8.2-22.8c5.5-5.4,13.1-8.2,22.8-8.2h550.4c9.7,0,17.3,2.7,22.8,8.2
	c5.5,5.5,8.2,13.1,8.2,22.8v134.5c0,9.7-2.6,17.3-7.9,22.8c-5.3,5.5-13,8.2-23.1,8.2H1919v141.5h281.9c10.5,0,18.8,2.8,24.9,8.5
	c6,5.7,9.1,13.5,9.1,23.7v111.1c0,9.7-3,17.4-9.1,22.8c-6.1,5.5-14.3,8.2-24.9,8.2H1919v145.6h371.4c13.3,0,23.7,3.6,31.3,10.8
	c7.6,7.2,11.4,16.9,11.4,29v126.3c0,9.4-2.8,16.8-8.5,22.2c-5.7,5.5-13.4,8.2-23.1,8.2H1740c-9.7,0-17.4-2.6-22.8-7.9
	c-5.5-5.3-8.2-12.8-8.2-22.5V47.2z"/>
<path class="st0" d="M3013.3,625c10.1,0,17.6,3.5,22.2,10.5l87.1,132.2c1.9,3.1,2.9,6.6,2.9,10.5c0,5.1-1.5,10-4.4,14.9
	c-2.9,4.9-7.1,9.3-12.6,13.2c-31.6,23.8-71.4,43.6-119.6,59.4c-48.2,15.8-92.7,23.7-133.6,23.7c-82.7,0-158.3-19.7-226.9-59.1
	c-68.6-39.4-122.9-93.1-162.9-161.1c-40-68-59.9-142.8-59.9-224.3c0-81.9,20-156.8,59.9-224.9c40-68,94.3-121.7,162.9-161.1
	c68.6-39.4,144.3-59.1,226.9-59.1c39.8,0,84,8.1,132.8,24.3c48.7,16.2,90.3,36.7,124.6,61.7c9.4,7,14,15.4,14,25.2
	c0,5.1-1.4,9.6-4.1,13.5l-88.9,130.4c-4.7,6.6-11.7,9.9-21.1,9.9c-7.8,0-15.4-2.5-22.8-7.6c-19.1-14.4-41.1-26.1-66.1-35.1
	c-25-9-47.8-13.5-68.4-13.5c-43.7,0-83.6,10.5-119.9,31.6c-36.3,21.1-65,49.6-86.3,85.7c-21.3,36.1-31.9,75.7-31.9,119
	c0,42.9,10.6,82.3,31.9,118.1c21.2,35.9,50,64.3,86.3,85.1c36.3,20.9,76.2,31.3,119.9,31.3c20.3,0,42.7-4.3,67.3-12.9
	c24.6-8.6,46-19.5,64.3-32.7C2996,628,3004.7,625,3013.3,625z"/>
<path class="st0" d="M4031,853.7c0,5.5-1.9,9.8-5.6,12.9c-3.7,3.1-8.9,4.7-15.5,4.7h-197.1c-12.5,0-22.6-4.5-30.4-13.5l-214.1-320.5
	l-124.6,148.6v162c0,7.4-2,13.1-5.9,17c-3.9,3.9-9.4,5.8-16.4,5.8h-167.3c-7,0-12.6-1.9-16.7-5.8c-4.1-3.9-6.1-9.6-6.1-17V39
	c0-7,2.1-12.5,6.1-16.4c4.1-3.9,9.6-5.9,16.7-5.9h167.3c7,0,12.5,1.9,16.4,5.6c3.9,3.7,5.9,9.3,5.9,16.7v366.7l277.8-368.5
	c6.2-8.6,12.8-14.2,19.6-17c6.8-2.7,15.3-4.1,25.4-4.1h191.8c6.6,0,11.8,1.8,15.5,5.3c3.7,3.5,5.6,8,5.6,13.5c0,7-2.7,13.8-8.2,20.5
	l-265,316.4L4024,833.9C4028.7,840.9,4031,847.5,4031,853.7z"/>
<path class="st0" d="M4850.6,400c5.4,1,10.1,4.4,14.1,10.1l89.4,128.8c4,5.8,5.5,11.4,4.5,16.8c-1,5.4-4.5,10.3-10.6,14.5
	l-429.6,298.1c-5.8,4-11.4,5.6-17,4.7c-5.6-0.9-10.4-4.2-14.4-10l-461.5-665.1c-4.2-6.1-5.8-11.9-4.6-17.4
	c1.2-5.5,4.6-10.3,10.4-14.3l136.9-95c5.8-4,11.5-5.6,17-4.7c5.6,0.9,10.5,4.4,14.7,10.4l359.4,518l273.9-190.1
	C4839.4,400.7,4845.2,399,4850.6,400z"/>
<path class="st0" d="M5058.9,47.2c0-9.7,2.7-17.3,8.2-22.8c5.5-5.4,13.1-8.2,22.8-8.2h550.4c9.7,0,17.3,2.7,22.8,8.2
	c5.5,5.5,8.2,13.1,8.2,22.8v134.5c0,9.7-2.6,17.3-7.9,22.8c-5.3,5.5-13,8.2-23.1,8.2h-371.4v141.5h281.9c10.5,0,18.8,2.8,24.9,8.5
	c6,5.7,9.1,13.5,9.1,23.7v111.1c0,9.7-3,17.4-9.1,22.8c-6.1,5.5-14.3,8.2-24.9,8.2h-281.9v145.6h371.4c13.3,0,23.7,3.6,31.3,10.8
	c7.6,7.2,11.4,16.9,11.4,29v126.3c0,9.4-2.8,16.8-8.5,22.2c-5.7,5.5-13.4,8.2-23.1,8.2h-561.5c-9.7,0-17.4-2.6-22.8-7.9
	c-5.5-5.3-8.2-12.8-8.2-22.5V47.2z"/>
</svg>
