<?xml version="1.0" encoding="utf-8"?>
<!-- Generator: Adobe Illustrator 21.0.2, SVG Export Plug-In . SVG Version: 6.00 Build 0)  -->
<svg version="1.1" id="Слой_1" xmlns="http://www.w3.org/2000/svg" xmlns:xlink="http://www.w3.org/1999/xlink" x="0px" y="0px"
	 viewBox="0 0 777.4 858.6" style="enable-background:new 0 0 777.4 858.6;" xml:space="preserve">
<style type="text/css">
	.st0{fill:#FF4D4D;}
</style>
<g>
	<path class="st0" d="M357.8,383.5c11.8-11.8,11.8-31,0-42.8c-11.8-11.8-31-11.8-42.8,0L154.9,500.8c-27.3,27.3-42,62.7-42,101.1
		s14.8,73.8,42,101.1C211,759,301.7,759,357,702.9l361.5-361.5c37.6-37.6,58.3-87.8,58.3-140.9S756.1,97.3,718.5,59.6
		c-78.2-78.2-204.3-78.2-282.5,0L75.2,420.4C26.6,469.1,0,533.3,0,601.9s26.6,133.5,75.2,181.5c48.7,48.7,112.9,75.2,181.5,75.2
		s133.5-26.6,181.5-75.2l160.1-160.1c11.8-11.8,11.8-31,0-42.8s-31-11.8-42.8,0L395.4,740.5c-36.9,36.9-86.3,57.5-138.7,57.5
		S154.9,777.4,118,740.5c-36.9-36.9-57.5-86.3-57.5-138.7S81.1,500.1,118,463.2l360.7-360.7c26.6-26.6,61.2-40.6,98.1-40.6
		c36.9,0,72.3,14.8,98.1,40.6c26.6,26.6,40.6,61.2,40.6,98.1s-14.8,72.3-40.6,98.1L313.5,660.1c-31.7,31.7-84.1,31.7-116.6,0
		c-15.5-15.5-24.3-36.1-24.3-58.3s8.9-42.8,24.3-58.3L357.8,383.5L357.8,383.5z"/>
</g>
</svg>
