<?xml version="1.0" encoding="utf-8"?>
<!-- Generator: Adobe Illustrator 21.0.2, SVG Export Plug-In . SVG Version: 6.00 Build 0)  -->
<svg version="1.1" id="Слой_1" xmlns="http://www.w3.org/2000/svg" xmlns:xlink="http://www.w3.org/1999/xlink" x="0px" y="0px"
	 viewBox="0 0 884.1 884.7" style="enable-background:new 0 0 884.1 884.7;" xml:space="preserve">
<style type="text/css">
	.st0{fill:#FFFFFF;}
</style>
<path class="st0" d="M442,0.7C198.1,0.7,0.4,198.4,0.4,442.3S198.1,884,442,884s441.7-197.7,441.7-441.7S686,0.7,442,0.7z
	 M645.4,469H473.3v172.1c0,17.5-13.7,31.2-31.2,31.2c-17.5,0-31.2-13.7-31.2-31.2V469H238.7c-17.5,0-31.2-13.7-31.2-31.2
	s13.7-31.2,31.2-31.2h172.1V234.4c0-17.5,13.7-31.2,31.2-31.2s31.2,13.7,31.2,31.2v172.9h172.1c17.5,0,31.2,12.9,31.2,30.5
	S662.9,469,645.4,469z"/>
</svg>
