<?xml version="1.0" encoding="utf-8"?>
<!-- Generator: Adobe Illustrator 21.0.2, SVG Export Plug-In . SVG Version: 6.00 Build 0)  -->
<svg version="1.1" id="Слой_1" xmlns="http://www.w3.org/2000/svg" xmlns:xlink="http://www.w3.org/1999/xlink" x="0px" y="0px"
	 viewBox="0 0 884.1 884.7" style="enable-background:new 0 0 884.1 884.7;" xml:space="preserve">
<style type="text/css">
	.st0{fill:#FF4D4D;}
</style>
<g>
	<g>
		<path class="st0" d="M442.4,0.7C198.7,0.7,0,198.7,0,442.3S198,884,442.4,884c243.7,0,441.7-198,441.7-441.7S686.1,0.7,442.4,0.7z
			 M442.4,822.3c-209.4,0-380-170.6-380-380s170.6-380,380-380s380,170.6,380,380S651.8,822.3,442.4,822.3z"/>
		<path class="st0" d="M645.7,407.3H473.6V234.4c0-17.5-13.7-31.2-31.2-31.2s-31.2,13.7-31.2,31.2v172.1H239.1
			c-17.5,0-31.2,13.7-31.2,31.2c0,17.5,13.7,31.2,31.2,31.2h172.1v172.1c0,17.5,13.7,31.2,31.2,31.2c17.5,0,31.2-13.7,31.2-31.2V469
			h172.1c17.5,0,31.2-13.7,31.2-31.2C677,420.2,663.2,407.3,645.7,407.3z"/>
	</g>
</g>
</svg>
