<?xml version="1.0" encoding="utf-8"?>
<!-- Generator: Adobe Illustrator 21.0.2, SVG Export Plug-In . SVG Version: 6.00 Build 0)  -->
<svg version="1.1" id="Слой_1" xmlns="http://www.w3.org/2000/svg" xmlns:xlink="http://www.w3.org/1999/xlink" x="0px" y="0px"
	 viewBox="0 0 901.5 858.6" style="enable-background:new 0 0 901.5 858.6;" xml:space="preserve">
<style type="text/css">
	.st0{fill:#FF4D4D;}
</style>
<path class="st0" d="M449.3,481.8c133.2,0,241.3-108.1,241.3-241.3S582.5,0,449.3,0S208,108.1,208,240.5S316,481.8,449.3,481.8z
	 M449.3,62.9c97.7,0,177.6,79.9,177.6,177.6S547,418.2,449.3,418.2s-177.6-79.9-177.6-177.6S351.6,62.9,449.3,62.9z"/>
<path class="st0" d="M31.8,858.6h837.9c17.8,0,31.8-14.1,31.8-31.8c0-166.5-135.4-302.7-302.7-302.7H302.7
	C136.2,524,0,659.5,0,826.7C0,844.5,14.1,858.6,31.8,858.6z M302.7,587.7h296.1c121.4,0,221.3,90.3,236.8,207.2H65.9
	C81.4,678.7,181.3,587.7,302.7,587.7z"/>
</svg>
