<svg id="Layer_1" data-name="Layer 1" xmlns="http://www.w3.org/2000/svg" viewBox="0 0 372.18 473.69"><defs><style>.cls-1,.cls-2{fill:#fff;}.cls-1{stroke:#fff;stroke-miterlimit:10;stroke-width:10px;}</style></defs><title>redact</title><path class="cls-1" d="M55.71,436.22l67.09-40.7a.15.15,0,0,0,0-.26L63.28,357.86A.15.15,0,0,0,63,358l-7.57,78.11A.15.15,0,0,0,55.71,436.22Z"/><rect class="cls-2" x="45.87" y="201.15" width="265" height="84.7" transform="translate(-122.71 264.94) rotate(-57.85)"/><path class="cls-2" d="M321.57,74.42l-52.8-33.19a11.17,11.17,0,0,0-15.31,3.49L224.92,90l71.72,45.08,28.42-45.36A11.17,11.17,0,0,0,321.57,74.42Z"/></svg>