<?xml version="1.0" encoding="utf-8"?>
<!-- Generator: Adobe Illustrator 21.0.2, SVG Export Plug-In . SVG Version: 6.00 Build 0)  -->
<svg version="1.1" id="Слой_1" xmlns="http://www.w3.org/2000/svg" xmlns:xlink="http://www.w3.org/1999/xlink" x="0px" y="0px"
	 viewBox="0 0 858.6 858.6" style="enable-background:new 0 0 858.6 858.6;" xml:space="preserve">
<style type="text/css">
	.st0{fill:#FF4D4D;}
</style>
<g>
	<path class="st0" d="M333.7,668.4c81.4,0,155.4-28.9,213.1-77.7l259,259c5.9,5.9,13.3,8.9,21.5,8.9c8.1,0,15.5-3,21.5-8.9
		c11.8-11.8,11.8-31.1,0-42.9l-259-259c48.1-57.7,77.7-132.4,77.7-213.1C667.4,150.5,517.9,1,333.7,1C150.2,1,0,151.2,0,334.7
		C0,518.9,150.2,668.4,333.7,668.4z M333.7,61.7c150.9,0,273,122.8,273,273c0,150.9-122.1,273-273,273s-273-122.8-273-273
		C60.7,184.5,183.5,61.7,333.7,61.7z"/>
</g>
</svg>
