<?xml version="1.0" encoding="utf-8"?>
<!-- Generator: Adobe Illustrator 21.0.2, SVG Export Plug-In . SVG Version: 6.00 Build 0)  -->
<svg version="1.1" id="Слой_1" xmlns="http://www.w3.org/2000/svg" xmlns:xlink="http://www.w3.org/1999/xlink" x="0px" y="0px"
	 viewBox="0 0 901.5 900.8" style="enable-background:new 0 0 901.5 900.8;" xml:space="preserve">
<style type="text/css">
	.st0{fill:#FF4D4D;}
</style>
<g>
	<g>
		<path class="st0" d="M31.8,406.6h343.7c17.8,0,31.8-14,31.8-31.8V31.1c0-17.8-14-31.8-31.8-31.8H31.8C14-0.8,0,13.2,0,31.1v343.7
			C0,391.8,14.7,406.6,31.8,406.6z M63.6,62.9h280.1v280.1H63.6L63.6,62.9z"/>
		<path class="st0" d="M901.5,31.1c0-17.8-14-31.8-31.8-31.8H526c-17.8,0-31.8,14-31.8,31.8v343.7c0,17.8,14,31.8,31.8,31.8h343.7
			c17.8,0,31.8-14,31.8-31.8V31.1z M837.9,342.9H557.8V62.9h280.1V342.9z"/>
		<path class="st0" d="M31.8,900.8h343.7c17.8,0,31.8-14,31.8-31.8V525.3c0-17.8-14-31.8-31.8-31.8H31.8C14,493.4,0,507.4,0,525.3
			v343.7C0,886,14.7,900.8,31.8,900.8z M63.6,557.1h280.1v280.1H63.6L63.6,557.1z"/>
		<path class="st0" d="M869.7,493.4H526c-17.8,0-31.8,14-31.8,31.8v343.7c0,17.8,14,31.8,31.8,31.8h343.7c17.8,0,31.8-14,31.8-31.8
			V525.3C901.5,508.2,886.8,493.4,869.7,493.4z M837.9,837.1H557.8V557.1h280.1V837.1z"/>
	</g>
</g>
</svg>
